<?xml version="1.0" encoding="utf-8"?>
<!-- Generator: Adobe Illustrator 16.0.0, SVG Export Plug-In . SVG Version: 6.00 Build 0)  -->
<!DOCTYPE svg PUBLIC "-//W3C//DTD SVG 1.1//EN" "http://www.w3.org/Graphics/SVG/1.1/DTD/svg11.dtd">
<svg version="1.1" id="Calque_1" xmlns="http://www.w3.org/2000/svg" xmlns:xlink="http://www.w3.org/1999/xlink" x="0px" y="0px"
	 width="141px" height="141px" viewBox="0 0 141 141" enable-background="new 0 0 141 141" xml:space="preserve">
<g>
	<path fill="#E4B736" d="M134.729,81.012c0.821-4.216,1.256-8.566,1.256-13.019c0-19.132-7.945-36.44-20.705-48.808l0.029-0.078
		c0.024-0.078,0.614-1.928,0.819-4.138c0.293-3.162-0.333-5.427-1.86-6.735c-2.242-1.923-6.002-1.518-11.483,1.236l-0.116,0.058
		C92.509,3.48,80.65,0,67.994,0C54.222,0,41.398,4.119,30.678,11.184c-3.097-0.874-8.275-1.812-10.625,0.757
		c-1.519,1.661-1.545,4.28-0.081,7.962C7.64,32.218,0,49.229,0,67.993c0,8.085,1.421,15.846,4.023,23.045
		c-1.574,2.813-3.319,7.017-1.597,9.639c1.157,1.759,3.501,2.425,7.121,2.021c11.87,19.913,33.625,33.288,58.447,33.288
		c0.46,0,0.92-0.01,1.381-0.02c1.423,2.15,3.812,5.033,6.376,5.033c0.153,0,0.306-0.011,0.459-0.029
		c2.052-0.283,3.595-2.328,4.687-6.22c22.428-4.327,40.965-19.703,49.694-40.226c2.929-0.104,8.606-0.734,9.823-3.979
		C141.348,88.053,139.484,84.936,134.729,81.012z M112.977,9.74c1.828,1.564,1.248,5.683,0.682,7.918
		c-2.795-2.537-5.801-4.845-8.987-6.894C108.703,8.889,111.564,8.532,112.977,9.74z M111.764,21.772
		c-4.644,8.837-18.404,32.375-36.305,39.037c-2.363-12.892,6.27-28.73,25.704-47.166C104.979,15.981,108.531,18.71,111.764,21.772z
		 M67.994,4.303c11.408,0,22.122,3.018,31.391,8.292c-19.793,18.896-28.47,35.301-25.824,48.851
		c-2.121,0.635-4.301,1.025-6.522,1.12c0.205-9.895-4.949-21.182-15.116-32.968c-6.588-7.638-13.62-13.556-16.833-16.118
		C44.697,7.658,55.96,4.303,67.994,4.303z M33.305,14.604c5.951,4.688,32.29,26.676,31.754,47.967
		c-14.626-0.543-28.632-13.997-41.655-40.01C26.427,19.596,29.742,16.926,33.305,14.604z M21.517,13.282
		c0.683-0.748,1.91-1.019,3.316-1.019c1.159,0,2.437,0.184,3.634,0.437c-2.44,1.749-4.757,3.656-6.941,5.705
		C20.672,15.965,20.663,14.216,21.517,13.282z M21.929,24.052c13.279,26.29,27.732,39.906,43.001,40.501
		c-0.084,0.793-0.208,1.585-0.374,2.375c-0.109,0.525-0.237,1.042-0.382,1.557c-8.563-3.388-19.975-1.939-33.581,4.357
		c-10.863,5.023-20.15,11.77-23.372,14.221c-1.894-6.022-2.917-12.43-2.917-19.069C4.304,50.972,11.015,35.49,21.929,24.052z
		 M4.086,99.585c-0.851-1.291-0.201-3.716,0.896-6.056c1.017,2.502,2.178,4.93,3.476,7.272C6.201,100.943,4.71,100.538,4.086,99.585
		z M7.888,89.055c4.797-3.699,35.852-26.702,55.67-18.689c-4.938,13.167-21.927,23.139-50.581,29.683
		C10.948,96.577,9.239,92.898,7.888,89.055z M75.939,139.003c-1.287,0.179-2.892-1.394-4.188-3.125
		c2.353-0.129,4.674-0.378,6.958-0.741C77.693,138.23,76.589,138.912,75.939,139.003z M79.646,130.607
		c-3.293,0.611-6.67,0.971-10.113,1.053c-0.958-3.712-3.537-14.605-4.158-26.399c-0.45,0.229-0.937,0.37-1.449,0.411
		c-0.174,0.012-0.347,0.012-0.518,0c0.633,11.371,3.029,21.854,4.078,26.003c-22.483-0.177-42.226-12.06-53.425-29.842
		c28.857-6.683,46.086-16.974,51.303-30.634c1.734,0.906,3.368,2.083,4.87,3.566C79.314,83.732,82.479,102.521,79.646,130.607z
		 M81.684,130.193c2.784-28.379-0.594-47.498-10.056-56.84c-1.68-1.662-3.56-3.012-5.625-4.049c0.192-0.649,0.357-1.306,0.497-1.97
		c0.192-0.912,0.333-1.837,0.422-2.777c2.347-0.083,4.715-0.482,7.094-1.19c0.09,0.319,0.187,0.638,0.289,0.954
		c3.34,10.272,13.865,18.757,30.443,24.537c8.771,3.06,17.13,4.623,21.314,5.281C117.889,112.227,101.499,125.836,81.684,130.193z
		 M126.876,92.251c-9.142-1.407-44.032-8.071-50.685-28.546c-0.104-0.318-0.199-0.641-0.289-0.962
		c8.603-3.141,17.304-10.277,25.592-21.078c5.421-7.063,9.492-14.168,11.754-18.438c11.389,11.512,18.434,27.331,18.434,44.767
		C131.682,76.577,129.971,84.77,126.876,92.251z M138.555,89.848c-0.625,1.674-4.089,2.438-7.14,2.65
		c1.161-2.997,2.118-6.096,2.851-9.279C138.686,87.055,138.87,89.007,138.555,89.848z"/>
	<path fill="#E4B736" d="M68.332,98.854c-0.092-1.229-1.311-1.946-2.858-2.217l-0.361-3.398c-0.033-0.312-0.313-0.539-0.625-0.508
		c-0.313,0.033-0.539,0.313-0.506,0.627l0.336,3.164c-0.675-0.021-1.37,0.025-2.039,0.145l-0.361-3.419
		c-0.034-0.312-0.313-0.539-0.626-0.507c-0.312,0.031-0.539,0.312-0.506,0.625l0.379,3.57c-1.54,0.487-2.688,1.388-2.596,2.641
		c0.247,3.337,2.363,5.938,4.842,6.097c0.171,0.013,0.343,0.013,0.518,0c0.512-0.041,0.999-0.183,1.449-0.411
		C67.291,104.289,68.544,101.741,68.332,98.854z"/>
</g>
</svg>
