<?xml version="1.0" encoding="utf-8"?>
<!-- Generator: Adobe Illustrator 16.0.0, SVG Export Plug-In . SVG Version: 6.00 Build 0)  -->
<!DOCTYPE svg PUBLIC "-//W3C//DTD SVG 1.1//EN" "http://www.w3.org/Graphics/SVG/1.1/DTD/svg11.dtd">
<svg version="1.1" id="Calque_1" xmlns="http://www.w3.org/2000/svg" xmlns:xlink="http://www.w3.org/1999/xlink" x="0px" y="0px"
	 width="20px" height="32px" viewBox="0 0 20 32" enable-background="new 0 0 20 32" xml:space="preserve">
<g>
	<path fill="#95C353" d="M10,31.417c-1.183-2.483-6.494-13.587-8.11-16.001C0.817,13.811,0.25,11.938,0.25,10
		c0-5.376,4.374-9.75,9.75-9.75c5.375,0,9.75,4.374,9.75,9.75c0,1.938-0.567,3.811-1.642,5.415
		C16.493,17.83,11.183,28.934,10,31.417z"/>
	<path fill="#8DB54D" d="M10,0.5c5.238,0,9.5,4.262,9.5,9.5c0,1.889-0.553,3.713-1.6,5.276c-1.536,2.297-6.381,12.375-7.9,15.559
		c-1.52-3.184-6.364-13.262-7.902-15.559C1.053,13.713,0.5,11.889,0.5,10C0.5,4.762,4.762,0.5,10,0.5 M10,0C4.478,0,0,4.478,0,10
		c0,2.055,0.62,3.965,1.683,5.554C3.477,18.235,10,32,10,32s6.523-13.765,8.316-16.445C19.38,13.966,20,12.056,20,10
		C20,4.478,15.524,0,10,0L10,0z"/>
</g>
<g>
	<path fill="#FBFDFC" stroke="#FBFDFC" stroke-width="0.25" stroke-miterlimit="10" d="M17.327,11.216
		c0.094-0.479,0.144-0.974,0.144-1.48c0-2.177-0.905-4.146-2.355-5.552l0.004-0.009c0.002-0.009,0.068-0.219,0.092-0.471
		c0.035-0.359-0.038-0.617-0.21-0.766c-0.256-0.219-0.684-0.173-1.309,0.141L13.68,3.084C12.524,2.396,11.175,2,9.736,2
		C8.168,2,6.709,2.468,5.49,3.272c-0.353-0.1-0.941-0.207-1.209,0.086C4.108,3.547,4.105,3.846,4.272,4.264
		C2.87,5.665,2,7.6,2,9.735c0,0.919,0.162,1.802,0.457,2.622c-0.179,0.32-0.376,0.798-0.181,1.097
		c0.132,0.2,0.398,0.276,0.811,0.229c1.35,2.267,3.825,3.788,6.649,3.788c0.051,0,0.104,0,0.157-0.002
		c0.162,0.244,0.433,0.572,0.725,0.572c0.019,0,0.035-0.002,0.052-0.004c0.233-0.033,0.409-0.264,0.532-0.707
		c2.551-0.492,4.659-2.242,5.654-4.576c0.332-0.012,0.979-0.084,1.117-0.453C18.08,12.017,17.867,11.663,17.327,11.216z
		 M14.852,3.108c0.208,0.178,0.144,0.646,0.079,0.901c-0.318-0.289-0.659-0.551-1.022-0.784C14.367,3.011,14.691,2.971,14.852,3.108
		z M14.716,4.477c-0.529,1.005-2.094,3.683-4.131,4.44c-0.269-1.466,0.713-3.268,2.925-5.365
		C13.943,3.818,14.347,4.128,14.716,4.477z M9.736,2.489c1.297,0,2.515,0.344,3.57,0.944c-2.251,2.149-3.238,4.016-2.937,5.557
		c-0.242,0.072-0.489,0.117-0.742,0.127c0.023-1.126-0.563-2.41-1.719-3.75c-0.75-0.869-1.549-1.542-1.915-1.834
		C7.084,2.871,8.366,2.489,9.736,2.489z M5.789,3.662c0.678,0.534,3.674,3.035,3.613,5.457C7.737,9.057,6.145,7.526,4.662,4.566
		C5.006,4.229,5.384,3.925,5.789,3.662z M4.448,3.512c0.078-0.086,0.218-0.117,0.377-0.117c0.132,0,0.277,0.021,0.414,0.05
		C4.96,3.644,4.697,3.861,4.449,4.094C4.352,3.817,4.351,3.617,4.448,3.512z M4.495,4.737c1.511,2.99,3.155,4.54,4.892,4.607
		c-0.009,0.09-0.023,0.18-0.042,0.27C9.332,9.674,9.317,9.733,9.3,9.791c-0.974-0.385-2.272-0.22-3.82,0.496
		c-1.236,0.571-2.292,1.338-2.659,1.617c-0.215-0.685-0.332-1.414-0.332-2.168C2.489,7.798,3.253,6.038,4.495,4.737z M2.465,13.329
		c-0.097-0.146-0.023-0.422,0.102-0.688c0.116,0.285,0.248,0.561,0.396,0.828C2.706,13.484,2.535,13.438,2.465,13.329z
		 M2.897,12.131c0.546-0.421,4.079-3.039,6.334-2.126c-0.562,1.498-2.495,2.632-5.755,3.376C3.246,12.987,3.051,12.568,2.897,12.131
		z M10.64,17.814c-0.147,0.02-0.33-0.158-0.477-0.355c0.268-0.015,0.532-0.043,0.792-0.084
		C10.839,17.727,10.712,17.805,10.64,17.814z M11.062,16.858c-0.377,0.07-0.761,0.112-1.152,0.12
		c-0.109-0.421-0.402-1.662-0.473-3.002c-0.051,0.025-0.107,0.042-0.165,0.047c-0.02,0.001-0.04,0.001-0.059,0
		c0.072,1.293,0.344,2.486,0.464,2.958C7.12,16.959,4.874,15.608,3.6,13.584c3.283-0.76,5.243-1.931,5.836-3.484
		c0.197,0.103,0.383,0.236,0.555,0.405C11.023,11.526,11.383,13.663,11.062,16.858z M11.293,16.812
		c0.317-3.229-0.068-5.405-1.145-6.467c-0.19-0.189-0.405-0.343-0.64-0.46C9.531,9.811,9.55,9.736,9.565,9.66
		c0.021-0.104,0.038-0.209,0.048-0.316C9.881,9.335,10.15,9.29,10.42,9.209c0.01,0.036,0.021,0.072,0.033,0.108
		c0.38,1.168,1.577,2.134,3.464,2.791c0.997,0.349,1.948,0.526,2.424,0.601C15.412,14.768,13.547,16.316,11.293,16.812z
		 M16.435,12.495c-1.041-0.16-5.009-0.918-5.766-3.248c-0.012-0.036-0.023-0.073-0.032-0.109c0.976-0.357,1.967-1.169,2.911-2.398
		c0.615-0.803,1.08-1.612,1.336-2.098c1.296,1.31,2.098,3.11,2.098,5.094C16.98,10.711,16.785,11.644,16.435,12.495z M17.764,12.221
		c-0.072,0.191-0.467,0.277-0.814,0.302c0.135-0.341,0.241-0.694,0.324-1.055C17.776,11.903,17.799,12.125,17.764,12.221z"/>
	<path fill="#FBFDFC" stroke="#FBFDFC" stroke-width="0.25" stroke-miterlimit="10" d="M9.773,13.246
		c-0.011-0.14-0.149-0.221-0.325-0.252l-0.041-0.387c-0.003-0.035-0.035-0.061-0.07-0.057c-0.036,0.003-0.062,0.036-0.058,0.071
		l0.039,0.359c-0.078-0.002-0.156,0.003-0.232,0.017l-0.042-0.389c-0.003-0.036-0.035-0.061-0.07-0.058
		c-0.036,0.004-0.062,0.036-0.058,0.071l0.043,0.407c-0.175,0.055-0.306,0.158-0.296,0.3c0.029,0.38,0.269,0.676,0.552,0.695
		c0.019,0.001,0.039,0.001,0.058,0c0.059-0.005,0.114-0.021,0.165-0.047C9.656,13.864,9.798,13.575,9.773,13.246z"/>
</g>
</svg>
