<?xml version="1.0" encoding="utf-8"?>
<!-- Generator: Adobe Illustrator 16.0.0, SVG Export Plug-In . SVG Version: 6.00 Build 0)  -->
<!DOCTYPE svg PUBLIC "-//W3C//DTD SVG 1.1//EN" "http://www.w3.org/Graphics/SVG/1.1/DTD/svg11.dtd">
<svg version="1.1" id="Calque_1" xmlns="http://www.w3.org/2000/svg" xmlns:xlink="http://www.w3.org/1999/xlink" x="0px" y="0px"
	 width="22px" height="40px" viewBox="-1 0 22 40" enable-background="new -1 0 22 40" xml:space="preserve">
<g display="none">
	<g display="inline">
		<path fill="#95C353" d="M10,38.755c-0.563-1.345-1.414-3.515-2.362-5.934c-2.305-5.88-5.173-13.197-6.372-14.989
			c-0.188-0.281-0.368-0.607-0.535-0.969C-0.119,15.021-0.5,12.591-0.5,11C-0.5,5.21,4.21,0.5,10,0.5c5.79,0,10.5,4.71,10.5,10.5
			c0,2.084-0.607,5.1-1.769,6.832c-1.198,1.792-4.063,9.104-6.366,14.98C11.415,35.234,10.563,37.408,10,38.755z"/>
		<path fill="#8DB54D" d="M10,1c5.514,0,10,4.486,10,10c0,1.959-0.59,4.922-1.685,6.554c-1.138,1.701-3.477,7.574-6.416,15.075
			c-0.717,1.829-1.378,3.517-1.899,4.809c-0.521-1.29-1.181-2.974-1.896-4.799C5.162,25.133,2.82,19.256,1.682,17.555
			c-0.174-0.26-0.341-0.563-0.497-0.901C0.367,14.88,0,12.536,0,11C0,5.486,4.486,1,10,1 M10,0C3.935,0-1,4.935-1,11
			c0,1.811,0.439,4.257,1.277,6.073c0.174,0.377,0.365,0.727,0.573,1.038C2.673,20.834,8.665,37.197,10,40
			c1.335-2.803,7.325-19.166,9.146-21.891C20.36,16.299,21,13.186,21,11C21,4.935,16.064,0,10,0L10,0z"/>
	</g>
	<path fill="#95C353" stroke="#8DB54D" stroke-miterlimit="10" d="M10.523,0.523c5.488,0,9.953,4.465,9.953,9.953
		c0,1.979-0.579,3.89-1.676,5.527c-1.61,2.407-6.686,12.964-8.277,16.3c-1.592-3.336-6.667-13.893-8.278-16.3
		c-1.095-1.637-1.674-3.548-1.674-5.527C0.571,4.989,5.037,0.523,10.523,0.523 M10.523,0C4.739,0,0.048,4.691,0.048,10.476
		c0,2.153,0.649,4.154,1.763,5.819c1.879,2.808,8.712,17.229,8.712,17.229s6.834-14.421,8.713-17.228
		C20.351,14.631,21,12.63,21,10.476C21,4.691,16.311,0,10.523,0L10.523,0z"/>
</g>
<g>
	<path fill="#95C353" d="M10,37.518c-2.157-9.869-4.649-13.856-7.064-17.72C1.268,17.128-0.5,14.064-0.5,11.256
		c0-6.028,4.612-10.75,10.5-10.75s10.5,4.722,10.5,10.75c0,2.809-1.768,5.872-3.424,8.523C14.649,23.66,12.157,27.648,10,37.518z"/>
	<path fill="#8DB54D" d="M10,1.006c5.607,0,10,4.502,10,10.25c0,2.676-1.729,5.666-3.359,8.276
		c-2.258,3.612-4.582,7.331-6.641,15.763c-2.059-8.433-4.384-12.153-6.652-15.781C1.728,16.922,0,13.932,0,11.256
		C0,5.508,4.393,1.006,10,1.006 M10,0.006c-6.212,0-11,5.037-11,11.25c0,2.863,1.692,5.896,3.5,8.788
		c2.625,4.199,5.25,8.387,7.5,19.95c2.25-11.563,4.875-15.751,7.5-19.95c1.808-2.893,3.5-5.925,3.5-8.788
		C21,5.043,16.213,0.006,10,0.006L10,0.006z"/>
</g>
<g>
	<path fill="#FBFDFC" stroke="#FFFFFF" stroke-width="0.25" stroke-miterlimit="10" d="M18.043,12.489
		c0.103-0.526,0.157-1.069,0.157-1.625c0-2.39-0.992-4.551-2.584-6.094l0.004-0.01c0.002-0.01,0.073-0.24,0.101-0.517
		c0.039-0.394-0.042-0.677-0.23-0.84c-0.28-0.241-0.75-0.19-1.436,0.154l-0.016,0.005C12.77,2.808,11.29,2.374,9.71,2.374
		c-1.721,0-3.322,0.513-4.66,1.396C4.663,3.66,4.017,3.542,3.723,3.864C3.533,4.071,3.53,4.4,3.713,4.859
		c-1.539,1.538-2.494,3.662-2.494,6.004c0,1.009,0.178,1.979,0.502,2.878c-0.197,0.351-0.413,0.876-0.199,1.204
		c0.146,0.219,0.437,0.303,0.89,0.251c1.482,2.488,4.199,4.157,7.298,4.157c0.056,0,0.114,0,0.172-0.002
		c0.179,0.269,0.477,0.628,0.796,0.628c0.02,0,0.037-0.002,0.057-0.004c0.255-0.036,0.449-0.29,0.584-0.775
		c2.8-0.541,5.114-2.462,6.205-5.024c0.365-0.013,1.075-0.092,1.227-0.497C18.869,13.369,18.636,12.98,18.043,12.489z M15.325,3.589
		c0.229,0.196,0.159,0.709,0.088,0.989c-0.349-0.317-0.725-0.604-1.122-0.86C14.794,3.482,15.15,3.439,15.325,3.589z M15.177,5.092
		c-0.581,1.103-2.299,4.042-4.535,4.874c-0.295-1.609,0.783-3.587,3.211-5.889C14.329,4.369,14.772,4.709,15.177,5.092z M9.71,2.911
		c1.423,0,2.76,0.377,3.918,1.036c-2.472,2.359-3.554,4.409-3.224,6.1c-0.265,0.079-0.537,0.128-0.814,0.139
		C9.616,8.95,8.973,7.54,7.705,6.069C6.881,5.116,6.004,4.377,5.603,4.056C6.8,3.33,8.207,2.911,9.71,2.911z M5.378,4.198
		c0.744,0.585,4.033,3.331,3.965,5.99C7.516,10.12,5.769,8.439,4.141,5.19C4.519,4.82,4.934,4.486,5.378,4.198z M3.907,4.033
		C3.992,3.938,4.146,3.904,4.32,3.904c0.145,0,0.304,0.023,0.454,0.055C4.468,4.178,4.18,4.416,3.908,4.671
		C3.801,4.368,3.8,4.148,3.907,4.033z M3.958,5.377c1.658,3.282,3.463,4.983,5.37,5.057c-0.011,0.099-0.026,0.198-0.046,0.297
		c-0.014,0.065-0.031,0.13-0.05,0.194c-1.069-0.422-2.494-0.242-4.193,0.544c-1.356,0.626-2.516,1.469-2.918,1.774
		c-0.236-0.752-0.365-1.551-0.365-2.379C1.756,8.738,2.594,6.806,3.958,5.377z M1.729,14.809c-0.106-0.161-0.025-0.463,0.112-0.755
		c0.128,0.312,0.272,0.616,0.435,0.908C1.994,14.979,1.807,14.929,1.729,14.809z M2.204,13.494c0.599-0.462,4.477-3.336,6.953-2.333
		c-0.617,1.644-2.739,2.889-6.317,3.706C2.587,14.433,2.373,13.973,2.204,13.494z M10.703,19.732
		c-0.161,0.021-0.362-0.174-0.523-0.39c0.294-0.018,0.584-0.048,0.868-0.093C10.921,19.636,10.781,19.722,10.703,19.732z
		 M11.167,18.682c-0.415,0.077-0.836,0.124-1.265,0.134c-0.12-0.464-0.441-1.826-0.52-3.296c-0.056,0.027-0.117,0.046-0.181,0.052
		c-0.022,0.001-0.044,0.001-0.065,0c0.079,1.418,0.378,2.729,0.509,3.247c-2.806-0.023-5.271-1.506-6.67-3.729
		c3.604-0.833,5.754-2.12,6.406-3.824c0.216,0.113,0.42,0.259,0.609,0.444C11.123,12.83,11.518,15.176,11.167,18.682z M11.42,18.633
		c0.347-3.545-0.075-5.934-1.257-7.1c-0.208-0.207-0.444-0.376-0.702-0.505c0.025-0.081,0.046-0.163,0.062-0.247
		c0.023-0.114,0.042-0.229,0.053-0.347c0.294-0.009,0.589-0.059,0.885-0.148c0.012,0.04,0.023,0.08,0.037,0.119
		c0.416,1.282,1.729,2.343,3.802,3.063c1.095,0.383,2.139,0.577,2.66,0.66C15.941,16.389,13.894,18.088,11.42,18.633z
		 M17.063,13.893c-1.142-0.175-5.498-1.007-6.329-3.565c-0.014-0.04-0.024-0.08-0.036-0.119c1.073-0.392,2.159-1.284,3.196-2.632
		c0.676-0.882,1.186-1.77,1.466-2.303c1.423,1.438,2.304,3.414,2.304,5.591C17.662,11.935,17.447,12.959,17.063,13.893z
		 M18.522,13.593c-0.079,0.209-0.513,0.304-0.894,0.332c0.147-0.375,0.266-0.762,0.354-1.159
		C18.535,13.243,18.561,13.487,18.522,13.593z"/>
	<path fill="#FBFDFC" stroke="#FFFFFF" stroke-width="0.25" stroke-miterlimit="10" d="M9.751,14.718
		c-0.012-0.154-0.164-0.243-0.356-0.277L9.35,14.016c-0.004-0.039-0.039-0.067-0.078-0.062c-0.04,0.003-0.068,0.04-0.064,0.078
		l0.043,0.394c-0.085-0.002-0.171,0.003-0.255,0.019l-0.046-0.427c-0.003-0.04-0.039-0.067-0.077-0.063
		c-0.04,0.005-0.068,0.04-0.064,0.078l0.047,0.446c-0.192,0.061-0.336,0.174-0.325,0.33c0.031,0.417,0.295,0.742,0.605,0.763
		c0.021,0.001,0.042,0.001,0.064,0c0.065-0.006,0.125-0.023,0.181-0.052C9.623,15.396,9.779,15.079,9.751,14.718z"/>
</g>
</svg>
